<?xml version="1.0" encoding="UTF-8"?>
<!DOCTYPE svg PUBLIC "-//W3C//DTD SVG 1.1//EN" "http://www.w3.org/Graphics/SVG/1.1/DTD/svg11.dtd">
<!-- Creator: CorelDRAW -->
<svg xmlns="http://www.w3.org/2000/svg" xml:space="preserve" width="254mm" height="254mm" version="1.1" style="shape-rendering:geometricPrecision; text-rendering:geometricPrecision; image-rendering:optimizeQuality; fill-rule:evenodd; clip-rule:evenodd"
viewBox="0 0 25400 25400"
 xmlns:xlink="http://www.w3.org/1999/xlink"
 xmlns:xodm="http://www.corel.com/coreldraw/odm/2003">
 <defs>
  <style type="text/css">
   <![CDATA[
    .str0 {stroke:#373435;stroke-width:135.47;stroke-miterlimit:22.9256}
    .fil0 {fill:#FFF212}
   ]]>
  </style>
 </defs>
 <g id="Capa_x0020_1">
  <metadata id="CorelCorpID_0Corel-Layer"/>
  <path class="fil0 str0" d="M9886.78 15996.25c13.17,-38.13 61.13,-903.05 69.78,-1013.84 36.84,-471.74 162.23,-966.73 274.57,-1384.89 155.87,-580.21 12.55,-862.03 -130.24,-521.04 -95.49,228.07 -179.76,488.54 -237.54,725.54 -83.99,344.57 -131.29,682.89 -159.11,987.88 -51.74,567.01 -36.4,1018.86 -65.27,1181.56 -18,101.41 -91.55,206.19 -132.46,293.44 -762.88,1626.97 -56.44,905.49 295.04,279.82 48.41,-86.21 170.95,-122.37 203.55,-190.38 76.65,-159.86 12.96,-309.21 -118.32,-358.09z"/>
 </g>
</svg>
